# xmcd
#
# Track frame offsets:
#	150
#	12982
#	27422
#	41045
#	52535
#	63160
#	86967
#	100222
#	108841
#	124705
#	140732
#	152365
#	166204
#	179052
#	190557
#	203901
#	217519
#	231449
#
# Disc length: 3125 seconds
#
# Revision: 1
# Processed by: cddbd v1.5PL3 Copyright (c) Steve Scherf et al.
# Submitted via: EasyCDDAExtractor 6.2.0.3
#
DISCID=ea0c3312
DTITLE=Peter Dames - Live On Rush St.
DYEAR=1900
DGENRE=
TTITLE0=Live on Rush St. - Amos Milburn - 01 - Something You Got
TTITLE1=Live on Rush St. - W.Pickett - 02 - Mustang Sally
TTITLE2=Live on Rush St. - Magic Sam - 03 - Same Old Blues
TTITLE3=Live on Rush St. - Arbee Stidham - 04 - My Heart Belongs To You
TTITLE4=Live on Rush St. - Petes Boogie - 05 - Petes Boogie
TTITLE5=Live on Rush St. - R. Newman - 06 - Leave Your Hat On
TTITLE6=Live on Rush St. - Dale Hawkins - 07 - Ruby
TTITLE7=Live on Rush St. - Jelly Roll Morton - 08 - Mr. Jellylord
TTITLE8=Live on Rush St. - Peter Dames - 09 - Voodoo Lounge
TTITLE9=Live on Rush St. - Jr. Walker - 10 - Hot Cha
TTITLE10=Live on Rush St. - Peter Dames - 11 - Emerald City
TTITLE11=Live on Rush St. - Howlin Wolf - 12 - Killing Floor
TTITLE12=Live on Rush St. - Ray Charles - 13 - Unchain My Heart
TTITLE13=Live on Rush St. - Peter Dames - 14 - Shortstop
TTITLE14=Live on Rush St. - Lowell Fulsom - 15 - It's All Your Fault
TTITLE15=Live on Rush St. - Louis Armstrong - 16 - Blueberry Hill
TTITLE16=Live on Rush St. - Peter Dames - 17 - Antigone
TTITLE17=Live on Rush St. - Bill Doggett - 18 - Hold It
EXTD=
EXTT0=
EXTT1=
EXTT2=
EXTT3=
EXTT4=
EXTT5=
EXTT6=
EXTT7=
EXTT8=
EXTT9=
EXTT10=
EXTT11=
EXTT12=
EXTT13=
EXTT14=
EXTT15=
EXTT16=
EXTT17=
PLAYORDER=
